<svg xmlns="http://www.w3.org/2000/svg" width="640" height="400" viewBox="0 0 640 400"><rect width="640" height="400" fill="#263d35"/><circle cx="464" cy="106" r="64" fill="#dbc79b"/><path d="M0 255L110 152 221 263 345 128 493 270 576 189 640 248V400H0" fill="#3f5949"/><path d="M0 310L165 215 306 320 445 207 640 325V400H0" fill="#1b3029"/><path d="M244 326V150H264V126H285V150H307V126H330V150H352V126H375V150H397V326" fill="#b2b997"/><path d="M291 326V246A30 30 0 0 1 60 0V326" fill="#253e32"/><path d="M319 325L284 400H400L343 325" fill="#d2b785"/><path d="M237 175L196 146M402 175L440 146" stroke="#d99558" stroke-width="3"/><g fill="#e9d8ad"><circle cx="115" cy="66" r="2"/><circle cx="260" cy="49" r="2"/><circle cx="556" cy="156" r="2"/><circle cx="380" cy="70" r="2"/></g><text x="35" y="47" font-family="Georgia,serif" font-size="24" font-style="italic" fill="#e9d8ad">a small adventure.</text><text x="35" y="366" font-family="monospace" font-size="12" letter-spacing="2" fill="#e9d8ad">DUNGEON ARCADE</text></svg>
